<svg width="100" height="100" viewBox="0 0 100 100" fill="none" xmlns="http://www.w3.org/2000/svg">
<path d="M46 4.6188C48.4752 3.18974 51.5248 3.18974 54 4.6188L87.3013 23.8453C89.7765 25.2744 91.3013 27.9154 91.3013 30.7735V69.2265C91.3013 72.0846 89.7765 74.7256 87.3013 76.1547L54 95.3812C51.5248 96.8103 48.4752 96.8103 46 95.3812L12.6987 76.1547C10.2235 74.7256 8.69873 72.0846 8.69873 69.2265V30.7735C8.69873 27.9154 10.2235 25.2744 12.6987 23.8453L46 4.6188Z" stroke="#3282B8" stroke-width="4"/>
<path d="M49.544 51.504H57.608V59.568C57.608 62.0853 57.1173 64.1973 56.136 65.904C55.1547 67.568 53.7893 68.8053 52.04 69.616C50.3333 70.4267 48.328 70.832 46.024 70.832C43.72 70.832 41.8853 70.4907 40.52 69.808C39.1547 69.0827 38.472 67.9733 38.472 66.48C38.472 65.7547 38.6 65.136 38.856 64.624C39.112 64.0693 39.368 63.6427 39.624 63.344C40.3493 63.6 41.0747 63.8133 41.8 63.984C42.568 64.112 43.3573 64.176 44.168 64.176C46.0027 64.176 47.3467 63.7493 48.2 62.896C49.096 62 49.544 60.6133 49.544 58.736V51.504ZM57.608 54.64H49.544V31.152C49.8853 31.0667 50.4187 30.96 51.144 30.832C51.8693 30.704 52.5733 30.64 53.256 30.64C54.7493 30.64 55.8373 30.9173 56.52 31.472C57.2453 31.984 57.608 32.9653 57.608 34.416V54.64Z" fill="#3282B8"/>
</svg>
